<?xml version="1.0" standalone="no"?>
<!DOCTYPE svg PUBLIC "-//W3C//DTD SVG 20010904//EN"
 "http://www.w3.org/TR/2001/REC-SVG-20010904/DTD/svg10.dtd">
<svg version="1.0" xmlns="http://www.w3.org/2000/svg"
 width="2048.000000pt" height="2048.000000pt" viewBox="0 0 2048.000000 2048.000000"
 preserveAspectRatio="xMidYMid meet">
<metadata>
Created by potrace 1.16, written by Peter Selinger 2001-2019
</metadata>
<g transform="translate(0.000000,2048.000000) scale(0.100000,-0.100000)"
fill="#EDC967" stroke="none">
<path d="M9995 20474 c-633 -23 -1129 -76 -1670 -179 -167 -32 -262 -52 -575
-125 -447 -105 -1031 -303 -1555 -527 -229 -99 -660 -306 -800 -386 -22 -12
-76 -42 -120 -66 -541 -297 -1184 -740 -1625 -1120 -36 -31 -81 -69 -100 -85
-19 -16 -60 -51 -90 -79 -30 -27 -98 -88 -150 -135 -121 -110 -486 -475 -613
-614 -116 -127 -340 -387 -442 -513 -279 -347 -736 -1007 -719 -1038 4 -7 3
-9 -1 -4 -10 8 -49 -52 -152 -233 -39 -69 -95 -165 -123 -215 -63 -111 -275
-535 -354 -708 -481 -1061 -781 -2238 -871 -3422 -23 -306 -37 -728 -30 -950
33 -1112 197 -2069 524 -3054 80 -240 240 -657 319 -831 11 -25 27 -61 35 -81
37 -90 81 -181 199 -419 136 -272 141 -280 281 -524 51 -87 100 -172 109 -189
122 -215 598 -905 620 -899 5 1 7 -1 4 -6 -6 -11 301 -398 314 -395 6 2 9 -1
7 -6 -1 -4 18 -32 42 -61 34 -40 46 -49 53 -38 7 10 8 8 4 -5 -8 -24 171 -224
469 -523 265 -266 381 -374 613 -574 74 -63 89 -76 318 -257 212 -168 454
-344 465 -338 5 4 8 2 7 -4 -6 -20 470 -326 802 -516 184 -106 599 -318 800
-408 271 -122 311 -138 322 -131 7 4 8 2 4 -4 -4 -7 -2 -12 4 -12 5 0 29 -9
53 -19 100 -46 373 -147 617 -228 303 -100 538 -168 821 -237 296 -72 765
-163 777 -152 2 3 -18 45 -46 93 -73 128 -232 449 -290 588 -107 255 -125 302
-187 488 -166 499 -267 981 -315 1497 -20 216 -24 763 -6 1005 54 755 235
1474 543 2165 66 148 266 544 296 584 4 6 33 54 63 106 120 203 283 438 479
689 123 158 306 362 495 551 112 113 205 209 205 214 0 5 8 10 19 12 25 3 87
64 79 77 -4 6 -1 7 6 2 8 -4 25 4 44 23 18 16 86 73 152 127 66 54 119 102
117 107 -1 5 2 7 8 3 5 -3 36 14 67 38 69 52 199 143 303 211 41 27 77 50 79
52 4 4 -181 298 -191 302 -5 2 -8 8 -8 13 0 4 -32 59 -71 121 -40 62 -92 147
-117 188 -25 41 -56 89 -68 105 -13 17 -29 41 -36 55 -7 14 -42 72 -78 128
-36 57 -88 140 -116 185 -28 45 -57 81 -63 79 -7 -1 -10 2 -6 8 6 10 -72 139
-335 555 -70 111 -132 210 -138 222 -11 20 -12 20 -98 -14 -382 -154 -837 -17
-1080 324 -59 81 -116 207 -145 318 -34 130 -32 311 4 447 86 324 337 574 669
666 91 25 368 24 453 -2 341 -102 574 -336 662 -664 35 -132 37 -316 4 -441
-47 -178 -121 -311 -245 -439 -45 -45 -83 -84 -84 -87 -2 -2 9 -23 26 -47 16
-24 47 -72 69 -108 74 -122 314 -502 354 -563 22 -33 47 -74 56 -91 9 -17 19
-33 22 -36 7 -5 36 -51 71 -111 8 -14 40 -65 70 -112 30 -48 66 -105 80 -127
14 -22 83 -131 153 -243 70 -111 133 -211 140 -222 6 -11 25 -42 43 -70 17
-27 60 -95 94 -150 34 -55 63 -101 65 -103 1 -1 49 25 106 59 285 170 735 377
1084 499 692 241 1392 360 2120 360 497 0 920 -48 1420 -160 185 -41 201 -46
465 -125 752 -228 1505 -629 2135 -1138 83 -67 155 -126 161 -132 6 -5 44 -39
85 -75 41 -36 141 -130 223 -210 81 -80 153 -144 158 -142 5 1 7 -2 4 -7 -3
-5 6 -22 22 -38 118 -128 287 -324 362 -423 19 -25 37 -47 40 -50 3 -3 41 -54
85 -115 43 -60 85 -116 94 -122 8 -7 12 -13 8 -13 -3 0 19 -37 51 -82 58 -84
203 -317 259 -417 l30 -53 16 43 c8 24 45 127 82 228 180 499 321 1009 419
1516 63 329 98 552 126 815 80 736 85 1465 14 2163 -93 923 -304 1810 -628
2647 -143 371 -273 663 -289 653 -6 -4 -7 -1 -2 7 10 16 -115 271 -128 263 -6
-3 -7 -1 -3 5 10 16 -100 227 -294 562 -101 174 -125 211 -135 203 -4 -5 -5
-3 -1 4 17 31 -437 687 -720 1038 -394 490 -880 988 -1370 1406 -324 276 -743
585 -1119 826 -140 89 -378 230 -530 314 -44 24 -98 54 -120 66 -67 38 -525
267 -595 297 -36 16 -132 58 -215 93 -1083 469 -2260 745 -3470 812 -201 12
-672 20 -810 15z"/>
<path d="M15175 7976 c-245 -41 -464 -151 -647 -325 -62 -58 -97 -99 -94 -108
3 -8 2 -11 -4 -8 -25 16 -179 -254 -220 -388 -75 -244 -73 -517 7 -759 15 -46
30 -75 36 -71 6 3 7 1 3 -6 -7 -12 57 -149 95 -203 11 -15 25 -25 31 -22 6 4
8 2 5 -3 -15 -24 132 -186 248 -274 66 -51 191 -124 245 -144 19 -8 60 -23 90
-35 203 -77 460 -88 697 -29 159 39 355 136 464 231 224 195 348 391 420 663
29 113 37 367 15 485 -23 121 -57 231 -69 223 -6 -3 -7 -1 -3 6 10 15 -54 152
-67 144 -6 -3 -7 -1 -4 4 4 6 -4 27 -18 47 -14 20 -25 41 -25 47 0 5 -13 23
-30 41 -16 17 -30 34 -30 37 0 11 -122 135 -185 188 -145 121 -313 202 -520
250 -88 20 -343 25 -440 9z"/>
<path d="M10155 4840 c-330 -30 -639 -196 -837 -450 -32 -41 -67 -86 -78 -100
-20 -26 -101 -184 -104 -204 -1 -6 -5 -16 -9 -23 -9 -14 -40 -116 -59 -193
-18 -74 -17 -403 1 -485 19 -84 55 -190 90 -267 50 -109 143 -246 163 -240 5
1 6 -3 2 -9 -10 -17 168 -186 266 -250 323 -213 723 -262 1082 -133 120 43
304 146 293 164 -3 5 0 7 8 4 17 -6 184 149 246 230 189 245 277 544 250 854
-58 663 -652 1162 -1314 1102z"/>
</g>
</svg>
